<svg width="78" height="65" viewBox="0 0 78 65" fill="none" xmlns="http://www.w3.org/2000/svg">
    <path
        d="M1 20C1 9.50659 9.50659 1 20 1H58C68.4934 1 77 9.50659 77 20V45C77 55.4934 68.4934 64 58 64H20C9.50659 64 1 55.4934 1 45V20Z"
        fill="#FDF9ED" stroke="#BD4545" stroke-width="2" />
    <path d="M21 27.7L35 16V39.4L21 27.7Z" fill="#BD4545" />
    <path
        d="M44 23.7H32V31.7H44C46.8 31.7 49 33.9 49 36.7C49 39.5 46.8 41.7 44 41.7H41V49.7H44C51.2 49.7 57 43.9 57 36.7C57 29.5 51.2 23.7 44 23.7Z"
        fill="#BD4545" />
</svg>