<svg width="37" height="53" viewBox="0 0 37 53" fill="none" xmlns="http://www.w3.org/2000/svg">
    <path
        d="M33.6 5.63149H28.56V3.75433C28.5573 2.75953 28.2025 1.80633 27.5729 1.1029C26.9434 0.399469 26.0903 0.00297104 25.2 0H11.76C10.8697 0.00297104 10.0166 0.399469 9.38706 1.1029C8.75751 1.80633 8.40266 2.75953 8.4 3.75433V5.63149H3.36C2.46969 5.63447 1.61661 6.03096 0.987059 6.73439C0.357512 7.43782 0.00265898 8.39103 0 9.38582V48.8063C0.00265898 49.8011 0.357512 50.7543 0.987059 51.4577C1.61661 52.1611 2.46969 52.5576 3.36 52.5606H18.48V48.8063H3.36V9.38582H8.4V15.0173H28.56V9.38582H33.6V30.0346H36.96V9.38582C36.9573 8.39103 36.6025 7.43782 35.9729 6.73439C35.3434 6.03096 34.4903 5.63447 33.6 5.63149ZM25.2 11.263H11.76V3.75433H25.2V11.263Z"
        fill="#BD4545" />
</svg>
    