<svg width="52" height="56" viewBox="0 0 52 56" fill="none" xmlns="http://www.w3.org/2000/svg">
<path d="M45.0667 27.1523C46.15 27.8997 47.116 28.7474 47.9646 29.6953C48.8132 30.6432 49.5444 31.6823 50.1583 32.8125C50.7722 33.9427 51.2236 35.1367 51.5125 36.3945C51.8014 37.6523 51.9639 38.9375 52 40.25C52 42.4193 51.5938 44.4609 50.7812 46.375C49.9688 48.2891 48.8493 49.957 47.4229 51.3789C45.9965 52.8008 44.3444 53.9219 42.4667 54.7422C40.5889 55.5625 38.5667 55.9818 36.4 56C34.7569 56 33.1681 55.7539 31.6333 55.2617C30.0986 54.7695 28.6903 54.0586 27.4083 53.1289C26.1264 52.1992 24.9889 51.0872 23.9958 49.793C23.0028 48.4987 22.2354 47.0677 21.6938 45.5H0V3.5H6.93333V0H10.4V3.5H34.6667V0H38.1333V3.5H45.0667V27.1523ZM3.46667 7V14H41.6V7H38.1333V10.5H34.6667V7H10.4V10.5H6.93333V7H3.46667ZM20.8813 42C20.8271 41.4349 20.8 40.8516 20.8 40.25C20.8 38.6823 21.0167 37.1602 21.45 35.6836C21.8833 34.207 22.5424 32.8125 23.4271 31.5H20.8V28H24.2667V30.3516C25.0069 29.4219 25.8285 28.6016 26.7312 27.8906C27.634 27.1797 28.609 26.569 29.6562 26.0586C30.7035 25.5482 31.7958 25.1654 32.9333 24.9102C34.0708 24.6549 35.2264 24.5182 36.4 24.5C38.2056 24.5 39.9389 24.8008 41.6 25.4023V17.5H3.46667V42H20.8813ZM36.4 52.5C38.0792 52.5 39.65 52.181 41.1125 51.543C42.575 50.9049 43.8569 50.0299 44.9583 48.918C46.0597 47.806 46.9264 46.5117 47.5583 45.0352C48.1903 43.5586 48.5153 41.9635 48.5333 40.25C48.5333 38.5547 48.2174 36.9688 47.5854 35.4922C46.9535 34.0156 46.0868 32.7214 44.9854 31.6094C43.884 30.4974 42.6021 29.6224 41.1396 28.9844C39.6771 28.3464 38.0972 28.0182 36.4 28C34.7208 28 33.15 28.319 31.6875 28.957C30.225 29.5951 28.9431 30.4701 27.8417 31.582C26.7403 32.694 25.8736 33.9883 25.2417 35.4648C24.6097 36.9414 24.2847 38.5365 24.2667 40.25C24.2667 41.9453 24.5826 43.5312 25.2146 45.0078C25.8465 46.4844 26.7132 47.7786 27.8146 48.8906C28.916 50.0026 30.1979 50.8776 31.6604 51.5156C33.1229 52.1536 34.7028 52.4818 36.4 52.5ZM38.1333 38.5H43.3333V42H34.6667V31.5H38.1333V38.5ZM6.93333 28H10.4V31.5H6.93333V28ZM13.8667 28H17.3333V31.5H13.8667V28ZM13.8667 21H17.3333V24.5H13.8667V21ZM6.93333 35H10.4V38.5H6.93333V35ZM13.8667 35H17.3333V38.5H13.8667V35ZM24.2667 24.5H20.8V21H24.2667V24.5ZM31.2 24.5H27.7333V21H31.2V24.5ZM38.1333 24.5H34.6667V21H38.1333V24.5Z" fill="#BD4545"/>
</svg>
