<svg width="67" height="83" viewBox="0 0 67 83" fill="none" xmlns="http://www.w3.org/2000/svg">
    <g clip-path="url(#clip0_1_7078)">
        <path
            d="M36.6103 0.647815C39.178 1.34606 40.9239 3.0006 43.7688 2.20116C55.5473 6.81058 63.1824 14.38 66.5623 29.0785C68.0213 38.692 65.8912 41.1207 62.628 49.9297C59.9016 56.3508 55.829 62.0558 50.7085 66.6269C46.1226 73.1539 42.4704 73.4879 38.1859 79.8176C36.9993 83.6478 34.3538 83.663 32.0438 81.6796C30.4973 82.9192 30.3806 82.1046 29.1648 79.9694C21.909 71.7119 16.6228 65.0077 10.505 59.1992C6.47344 53.2691 4.21695 51.0631 1.69784 43.7872C-0.485702 37.9482 -0.320356 31.5527 0.832207 27.9198C3.32699 14.6431 10.3299 5.88465 22.2981 2.58064C25.4397 3.68872 26.8937 1.64458 30.0791 0.754069C30.7356 2.42378 30.5654 1.8065 30.5168 0.647815C32.3502 -1.15345 34.7574 1.45737 36.6103 0.647815ZM2.50999 35.0035C2.57321 37.7357 2.43218 41.2674 3.67228 41.996C4.79566 47.1266 7.56278 50.3092 11.1323 55.8395C16.8319 65.9995 23.4701 69.2225 31.0128 78.2946C32.9338 80.4906 35.1027 80.4197 36.1677 78.2491C40.3841 75.5118 45.466 66.9557 49.7845 63.8592C54.7595 60.5703 58.2755 54.3671 61.456 46.7977C64.2188 42.3254 65.2816 36.9428 64.4371 31.6995C62.9782 22.5919 61.1205 16.1509 55.4403 12.5686C47.1195 3.54199 38.4777 3.2384 27.4044 3.76968C13.0484 5.94537 2.78719 20.6743 2.50999 35.0035Z"
            fill="#6D1950" />
        <path
            d="M33.6049 58.9765C35.2438 60.2212 37.3203 58.258 38.7452 58.4148C40.1409 57.5547 40.6905 59.9631 40.5251 59.356C41.0114 59.1536 39.854 59.5381 39.251 60.9144C31.47 62.7763 23.8203 62.3108 17.3085 55.3486C11.8375 52.2268 9.31354 45.6845 8.55489 38.1455C6.87711 25.4911 16.3456 11.172 29.7873 9.61364C38.1762 7.36711 44.9408 9.72495 50.9955 16.6163C50.7377 17.9622 51.1268 16.2115 51.4234 17.0666C51.9097 17.2235 52.1432 19.0551 51.4234 18.8679C50.8009 18.5593 50.5432 18.4024 49.7116 18.8274C48.8654 19.47 48.2526 17.1628 46.7937 16.2976C37.3981 11.0961 25.2598 11.931 17.6198 18.7212C13.6174 22.516 11.8715 28.5573 11.0108 33.2274C11.108 36.1773 10.9767 40.4528 12.0223 42.841C12.6448 41.9606 12.3092 44.5815 12.9366 43.099C15.3244 41.8998 17.0751 39.3447 19.0301 37.8318C19.4289 39.1119 19.0787 36.7288 19.3851 37.5333C20.1972 37.5738 20.4015 37.8824 21.0969 37.6851C21.6416 38.8336 21.4227 38.4795 20.9413 39.4459C19.2052 40.4831 17.8483 42.679 16.8028 43.0636C15.8934 43.1496 14.7213 45.9982 13.9141 45.5226C13.7608 45.6836 13.6564 45.8879 13.614 46.1102C13.5717 46.3324 13.5931 46.5627 13.6758 46.7724C17.08 53.4462 21.6464 56.3505 28.625 58.4604C29.9235 58.6172 31.7861 60.211 33.6049 58.9765Z"
            fill="#BD4545" />
        <path
            d="M56.2039 35.4183C55.9948 30.1461 54.852 27.6921 52.863 23.0827C52.8046 23.6544 52.5177 22.7892 52.4739 22.3136C51.9876 21.3674 52.7025 20.5376 52.9602 20.9222C53.6994 20.9879 53.7091 21.4281 54.4192 21.0082C54.6331 22.0859 54.9979 21.0082 54.8763 21.6356C57.3954 26.4626 58.4215 28.9317 58.6015 33.8751C58.7522 45.2848 54.0301 52.9655 44.9847 58.7437C44.9555 59.9277 45.0479 59.8316 44.5762 58.9562C43.6036 59.7709 43.4333 58.5869 42.8741 58.4503C42.3878 57.5749 42.9227 56.2746 43.4771 56.73C44.654 56.821 46.181 54.2001 47.4114 54.1697C48.8995 53.5777 49.8867 52.3027 50.9858 50.6279C51.2144 51.1895 51.4137 50.294 50.8545 49.3933C45.5731 45.8515 41.0942 41.8644 36.0949 37.1386C34.4333 35.4303 32.6045 33.9075 30.6384 32.595C29.5102 31.5375 29.9284 31.9726 28.8877 32.6253C27.2391 32.7923 26.2568 34.2343 24.9972 35.9648C24.9194 35.4892 24.4039 36.1621 23.8544 36.5112C23.5042 35.4537 23.0325 35.6612 22.7845 35.7472C22.2982 35.3677 22.6337 34.5784 23.052 34.371C24.5109 33.359 26.2665 31.2643 28.2409 29.9639C29.092 29.3669 30.6725 29.6654 31.8834 30.3839C34.7283 32.4938 36.5666 34.2698 39.3872 36.6074C40.6759 37.3461 40.3598 36.9717 41.9015 36.6074C43.5938 36.0204 44.5859 35.3981 45.9524 33.1263C47.3676 32.5545 48.5737 31.325 50.3584 33.0605C52.0022 33.9409 53.573 36.324 55.4161 37.2601C55.3043 38.3682 55.5182 36.6782 55.9024 37.5485C56.452 37.6851 56.2915 37.2398 56.131 36.9312C56.0813 36.426 56.1059 35.9158 56.2039 35.4183ZM55.5717 41.0599C55.5717 40.5185 55.4599 40.8677 55.348 40.4325C53.1402 38.8488 50.8545 36.7845 48.6223 34.8668C48.1944 34.4772 48.0971 34.4367 47.7275 34.9275C46.2885 36.3824 44.7404 37.7157 43.0978 38.9146C42.7428 39.5319 42.8741 39.3042 43.1318 39.7191C43.7981 40.5236 44.226 40.4629 44.795 41.1004C47.2266 43.2508 49.6582 45.1482 52.2842 47.329C52.6004 47.9361 52.9602 48.2094 53.1353 47.329C54.2435 45.3721 55.0647 43.254 55.5717 41.0448V41.0599Z"
            fill="#BD4545" />
        <path
            d="M45.3445 24.8587C45.3445 27.252 43.3312 29.7869 40.6953 29.7059C40.0707 29.7545 39.4434 29.6621 38.8564 29.435C38.2693 29.2079 37.7363 28.8516 37.2939 28.3903C36.8515 27.929 36.51 27.3738 36.293 26.7625C36.076 26.1512 35.9885 25.4983 36.0365 24.8486C36.0133 24.204 36.1182 23.5614 36.3446 22.9609C36.5709 22.3604 36.9139 21.8149 37.3521 21.3586C37.7902 20.9023 38.3141 20.5448 38.891 20.3087C39.468 20.0726 40.0855 19.9628 40.7051 19.9862C43.2436 19.8799 45.291 22.3845 45.3445 24.8587ZM42.8594 24.8283C42.8733 24.5282 42.8267 24.2283 42.7227 23.948C42.6186 23.6676 42.4593 23.413 42.255 23.2005C42.0508 22.988 41.8061 22.8223 41.5367 22.714C41.2672 22.6057 40.979 22.5572 40.6905 22.5717C39.4212 22.7033 38.4243 23.7557 38.4923 24.9194C38.5201 25.5167 38.77 26.0793 39.1894 26.4882C39.6087 26.8971 40.1645 27.1202 40.7391 27.1103C41.0254 27.1163 41.3097 27.0608 41.5745 26.9472C41.8392 26.8337 42.0785 26.6645 42.2775 26.4503C42.4765 26.2362 42.6309 25.9816 42.731 25.7025C42.8312 25.4234 42.8749 25.1258 42.8594 24.8283Z"
            fill="#BD4545" />
    </g>
    <defs>
        <clipPath id="clip0_1_7078">
            <rect width="67" height="83" fill="white" />
        </clipPath>
    </defs>
</svg>
    