<svg width="84" height="85" viewBox="0 0 84 85" fill="none" xmlns="http://www.w3.org/2000/svg">
    <ellipse cx="42" cy="42.4913" rx="42" ry="42.4913" fill="#BD4545" />
    <path
        d="M60.9516 24.8042C57.4172 23.1418 53.6381 21.9336 49.6872 21.2456C49.202 22.1276 48.6351 23.3138 48.2442 24.2574C44.0443 23.6224 39.8829 23.6224 35.7602 24.2574C35.3695 23.3138 34.7897 22.1276 34.3001 21.2456C30.3449 21.9336 26.5615 23.1462 23.0271 24.813C15.8983 35.6431 13.9658 46.2042 14.9321 56.6153C19.6603 60.1651 24.2425 62.3215 28.7474 63.7325C29.8596 62.1935 30.8516 60.5576 31.7062 58.8334C30.0786 58.2116 28.5197 57.4444 27.0468 56.5536C27.4376 56.2626 27.8198 55.9583 28.1891 55.6452C37.1731 59.8697 46.9344 59.8697 55.8111 55.6452C56.1848 55.9583 56.5669 56.2626 56.9534 56.5536C55.4761 57.4487 53.913 58.216 52.2854 58.8378C53.14 60.5576 54.1277 62.198 55.2442 63.7369C59.7535 62.3258 64.3399 60.1695 69.0681 56.6153C70.2019 44.5462 67.1314 34.0821 60.9516 24.8042ZM32.9302 50.2126C30.2333 50.2126 28.0216 47.6814 28.0216 44.5991C28.0216 41.5167 30.186 38.9812 32.9302 38.9812C35.6744 38.9812 37.886 41.5123 37.8388 44.5991C37.843 47.6814 35.6744 50.2126 32.9302 50.2126ZM51.07 50.2126C48.3731 50.2126 46.1614 47.6814 46.1614 44.5991C46.1614 41.5167 48.3258 38.9812 51.07 38.9812C53.8142 38.9812 56.0259 41.5123 55.9786 44.5991C55.9786 47.6814 53.8142 50.2126 51.07 50.2126Z"
        fill="white" />
</svg>
    