<svg width="84" height="85" viewBox="0 0 84 85" fill="none" xmlns="http://www.w3.org/2000/svg">
    <path d="M84 42.6474C84 19.0941 65.1958 0 42 0C18.8042 0 0 19.0941 0 42.6474C0 62.6473 13.561 79.4299 31.8545 84.0392V55.6804H23.1941V42.6474H31.8545V37.0316C31.8545 22.5161 38.3242 15.7881 52.3589 15.7881C55.02 15.7881 59.6114 16.3186 61.4897 16.8474V28.6607C60.4985 28.555 58.7765 28.5021 56.6378 28.5021C49.7515 28.5021 47.0904 31.1513 47.0904 38.038V42.6474H60.8093L58.4522 55.6804H47.0904V84.9826C67.8838 82.4323 84 64.4521 84 42.6474Z" fill="#BD4545"/>
    </svg>
    