<svg width="70" height="70" viewBox="0 0 70 70" fill="none" xmlns="http://www.w3.org/2000/svg">
<rect width="70" height="70" rx="10" fill="#27D095"/>
<path fill-rule="evenodd" clip-rule="evenodd" d="M51 44.3337V35.0003C51 34.647 50.86 34.307 50.6093 34.0577C50.36 33.807 50.02 33.667 49.6667 33.667H20.3333C19.98 33.667 19.64 33.807 19.3907 34.0577C19.14 34.307 19 34.647 19 35.0003V44.3337H20.3333V41.667H49.6667V44.3337H51ZM25.6667 32.3337V31.0003C25.6667 30.2643 26.264 29.667 27 29.667H32.3333C33.0693 29.667 33.6667 30.2643 33.6667 31.0003V32.3337H36.3333V31.0003C36.3333 30.2643 36.9307 29.667 37.6667 29.667H43C43.736 29.667 44.3333 30.2643 44.3333 31.0003V32.3337H48.3333V27.0003C48.3333 26.647 48.1933 26.307 47.9427 26.0577C47.6933 25.807 47.3533 25.667 47 25.667H23C22.6467 25.667 22.3067 25.807 22.0573 26.0577C21.8067 26.307 21.6667 26.647 21.6667 27.0003V32.3337H25.6667Z" fill="white"/>
</svg>
