<svg width="84" height="85" viewBox="0 0 84 85" fill="none" xmlns="http://www.w3.org/2000/svg">
    <path d="M42.0001 0C30.5935 0 29.1632 0.0489563 24.6834 0.255661C20.213 0.461985 17.1599 1.18039 14.4883 2.23061C11.7264 3.3165 9.38421 4.76951 7.04935 7.13168C4.71436 9.49385 3.27816 11.8637 2.20495 14.6579C1.16662 17.3606 0.456769 20.4494 0.25258 24.9721C0.0482652 29.5043 0 30.9514 0 42.4914C0 54.0312 0.0482652 55.4782 0.25258 60.0104C0.456769 64.5331 1.16662 67.6219 2.20495 70.3246C3.27828 73.1188 4.71449 75.4885 7.04935 77.8509C9.38433 80.2131 11.7264 81.6661 14.4883 82.752C17.1599 83.8022 20.213 84.5205 24.6834 84.7269C29.1632 84.9336 30.5935 84.9826 42.0001 84.9826C53.4065 84.9826 54.8368 84.9336 59.3166 84.7269C63.787 84.5206 66.8401 83.8022 69.5115 82.752C72.2734 81.6661 74.6157 80.2131 76.9508 77.8509C79.2856 75.4885 80.7218 73.1188 81.7952 70.3246C82.8333 67.6219 83.5434 64.5331 83.7473 60.0104C83.9516 55.4782 84 54.0312 84 42.4914C84 30.9514 83.9516 29.5043 83.7473 24.9721C83.5434 20.4494 82.8333 17.3606 81.7952 14.6579C80.7218 11.8637 79.2856 9.49385 76.9508 7.13168C74.6157 4.76951 72.2734 3.3165 69.5115 2.23061C66.8401 1.18039 63.787 0.461985 59.3166 0.255661C54.8368 0.0489563 53.4065 0 42.0001 0ZM42.0001 7.65603C53.2144 7.65603 54.5428 7.69942 58.9716 7.90385C63.0666 8.09272 65.2905 8.78493 66.7703 9.36684C68.7309 10.1377 70.13 11.0584 71.5996 12.5453C73.0694 14.0322 73.9795 15.4478 74.7414 17.4311C75.3166 18.9284 76.0008 21.1783 76.1875 25.3212C76.3896 29.8017 76.4325 31.1457 76.4325 42.4913C76.4325 53.8369 76.3896 55.1808 76.1875 59.6614C76.0008 63.8043 75.3166 66.0542 74.7414 67.5513C73.9795 69.5349 73.0694 70.9503 71.5996 72.4371C70.13 73.9241 68.7308 74.8448 66.7704 75.6157C65.2905 76.1976 63.0665 76.8898 58.9716 77.0787C54.5436 77.2831 53.2153 77.3265 42 77.3265C30.7847 77.3265 29.4567 77.2831 25.0284 77.0786C20.9334 76.8898 18.7095 76.1976 17.2297 75.6157C15.2691 74.8448 13.87 73.9241 12.4004 72.4371C10.9307 70.9503 10.0205 69.5348 9.25854 67.5515C8.68336 66.0542 7.99927 63.8042 7.81246 59.6614C7.6104 55.1808 7.56751 53.8369 7.56751 42.4913C7.56751 31.1457 7.6104 29.8017 7.81246 25.3212C7.99927 21.1782 8.68336 18.9284 9.25854 17.4312C10.0205 15.4477 10.9307 14.0322 12.4003 12.5455C13.87 11.0584 15.2692 10.1377 17.2296 9.36684C18.7095 8.78493 20.9335 8.09272 25.0284 7.90385C29.4572 7.69942 30.7856 7.65603 42 7.65603" fill="#BD4545"/>
    <path d="M42.0003 56.6546C34.2681 56.6546 28.0001 50.3133 28.0001 42.4909C28.0001 34.6683 34.2681 28.327 42.0003 28.327C49.7322 28.327 56.0002 34.6683 56.0002 42.4909C56.0002 50.3133 49.7322 56.6546 42.0003 56.6546ZM42.0003 20.671C30.0887 20.671 20.4326 30.44 20.4326 42.4909C20.4326 54.5417 30.0887 64.3107 42.0003 64.3107C53.9117 64.3107 63.5677 54.5417 63.5677 42.4909C63.5677 30.44 53.9117 20.671 42.0003 20.671ZM69.4599 19.8089C69.4599 22.6251 67.2034 24.9078 64.4199 24.9078C61.6365 24.9078 59.3799 22.6251 59.3799 19.8089C59.3799 16.9928 61.6365 14.7098 64.4199 14.7098C67.2034 14.7098 69.4599 16.9928 69.4599 19.8089Z" fill="#BD4545"/>
    </svg>
    