<svg width="90" height="83" viewBox="0 0 90 83" fill="none" xmlns="http://www.w3.org/2000/svg">
    <g clip-path="url(#clip0_1_7069)">
        <path
            d="M89.908 78.6433C89.3361 74.3253 87.8144 74.0426 86.8851 68.7221C86.8851 67.0322 86.8851 65.2266 86.9463 66.7944C89.9387 57.9271 90.3319 51.6685 88.6978 42.5248C84.1429 23.7555 68.8289 14.3612 54.7863 22.2391C53.0502 21.725 51.5846 22.7338 50.3846 25.2077C50.8289 23.28 48.6842 27.3282 46.468 29.4486C45.8757 30.0912 45.7889 29.2751 45.9574 30.2068C41.5608 35.3409 39.5336 42.4734 39.268 52.491C38.88 53.7054 39.2017 54.6564 39.268 52.5617C39.0025 54.8492 39.268 57.548 39.8451 58.9873C39.9982 61.8339 39.6102 58.5632 40.0187 59.8162C44.6706 80.3525 63.3191 88.6223 78.2195 79.0353C78.628 77.9879 79.3123 76.767 79.6902 78.8168C81.8655 78.3992 84.7046 80.0056 87.4927 81.8626C88.4374 82.9742 89.3514 83.8288 89.6782 81.3549C90.0085 80.5142 90.09 79.5528 89.908 78.6433ZM83.2034 69.0049C83.7957 72.7189 84.9242 74.7879 85.4451 76.3944C83.6374 73.6699 82.4782 74.7494 80.5225 74.4667C79.2051 74.4667 77.5506 73.4 76.4629 75.1542C63.2885 86.0071 45.8246 74.3574 43.1591 57.1624C40.657 44.3111 48.2297 29.3844 59.6527 24.88C72.1123 21.0632 83.7395 31.0743 85.9097 46.8364C86.5276 52.4653 86.0374 57.805 83.3565 65.8563C82.6314 69.1077 82.9787 67.2507 83.2034 68.9727V69.0049Z"
            fill="#6D1950" />
        <path
            d="M56.5379 50.7946C56.5559 51.0833 56.5254 51.3736 56.4486 51.6466C56.3718 51.9196 56.2502 52.1693 56.0919 52.3794C55.9335 52.5896 55.7419 52.7556 55.5293 52.8667C55.3167 52.9778 55.088 53.0315 54.8579 53.0243C53.8367 52.9279 53.0554 52.1697 53.0452 50.8203C53.0593 50.2431 53.2478 49.6943 53.5723 49.286C53.8968 48.8777 54.3328 48.6404 54.7916 48.6227C55.0226 48.6062 55.2538 48.6509 55.4702 48.7539C55.6867 48.8569 55.8835 49.0158 56.0481 49.2205C56.2127 49.4252 56.3413 49.6711 56.4257 49.9422C56.5101 50.2133 56.5483 50.5037 56.5379 50.7946Z"
            fill="#6D1950" />
        <path
            d="M72.5106 50.8075C72.5044 50.5187 72.5448 50.2313 72.6294 49.9627C72.7141 49.6942 72.8412 49.45 73.003 49.2451C73.1649 49.0402 73.3582 48.8788 73.5711 48.7708C73.784 48.6627 74.0122 48.6101 74.2417 48.6163C75.2119 48.4428 75.9932 49.6701 75.9932 50.8075C75.9932 51.9448 75.1966 52.8894 74.2009 53.0243C73.7466 52.9995 73.3173 52.7553 73.0025 52.3423C72.6877 51.9294 72.5115 51.3797 72.5106 50.8075Z"
            fill="#6D1950" />
        <path
            d="M66.2502 50.7947C66.2809 52.0799 65.5506 53.1658 64.5702 53.0244C64.1002 53.0296 63.6476 52.8009 63.3109 52.3881C62.9743 51.9753 62.7808 51.4119 62.7728 50.8204C62.7707 50.5319 62.8142 50.2458 62.9005 49.9785C62.9869 49.7112 63.1144 49.4681 63.2758 49.2631C63.4373 49.0582 63.6293 48.8956 63.841 48.7846C64.0526 48.6736 64.2797 48.6164 64.5089 48.6165C64.9678 48.6214 65.4068 48.8521 65.7323 49.2592C66.0577 49.6663 66.2436 50.2174 66.2502 50.7947Z"
            fill="#6D1950" />
        <path
            d="M33.1916 40.899C31.4766 40.3466 29.8896 39.292 28.5601 37.8212C27.9933 36.4332 28.1311 37.1786 28.3558 36.4075C29.5813 34.8525 30.1635 32.4301 30.6333 29.3779C30.7405 26.9811 30.909 26.8976 32.446 27.4952C33.6154 28.2662 34.6571 26.8526 34.4886 25.2141C34.6162 24.8992 33.646 22.7723 32.446 23.0743C31.0571 23.7169 29.4486 22.7916 28.1567 23.0743C27.595 22.4318 27.212 23.7169 27.4367 22.2069C27.3345 21.7571 27.3294 20.0607 27.3754 20.5426C27.2069 20.4013 26.4665 17.9081 25.6494 18.6149C24.7456 19.1611 24.0562 19.5402 23.9541 20.6069C23.852 21.6735 23.7754 21.2494 23.9235 21.802C23.9235 22.9908 23.7396 23.1643 22.9022 23.0872C22.366 23.1964 21.5439 22.5924 20.972 23.0872C20.1477 23.0062 19.3197 23.0062 18.4954 23.0872C17.5201 23.4791 17.0043 23.6526 16.8562 25.1562C16.7439 26.4928 17.3669 27.4566 18.3269 27.4373C18.6435 28.4012 19.1745 28.4012 19.6494 27.4373C20.1856 27.0518 20.6707 28.5297 20.6299 28.5297C20.8443 32.0509 21.9116 33.079 23.0196 36.4268C23.3414 36.5425 23.1218 37.4935 22.8154 37.7633C21.4367 38.2067 20.0069 39.9224 18.2656 40.8412C17.1933 42.287 16.5499 42.6789 16.9431 43.7392C17.3413 45.3584 18.1737 45.1014 19.389 45.0243C21.3396 43.1673 23.1984 43.2251 24.9754 41.1689C25.5575 39.6846 25.726 40.0187 26.3286 41.1304C27.8605 42.8396 29.806 43.8805 31.9967 44.9858C32.5073 44.6388 32.9209 44.3432 33.2069 45.095C33.9933 44.8315 34.4937 43.1159 34.5039 43.0709C34.6213 41.4452 33.9371 41.8051 33.1916 40.899ZM27.0639 29.0502C26.8193 30.6105 26.3297 32.0938 25.6239 33.4132C24.8799 31.758 24.362 29.9573 24.092 28.0863C24.0307 27.598 24.1482 27.4052 24.4648 27.508C25.0316 27.6622 25.5371 27.3088 26.0477 27.508C27.406 27.5016 27.3856 27.1096 27.0333 29.0502H27.0639Z"
            fill="#BD4545" />
        <path
            d="M50.385 25.1757C50.6301 22.9203 48.3067 26.268 46.4684 29.4166C46.7748 28.3114 46.3408 29.9371 46.928 28.1315C46.928 25.105 46.8106 28.0029 46.8718 25.7026C43.6395 7.97422 30.0208 0.822482 17.1629 6.32283C4.98928 12.8513 0.653958 28.5234 6.63864 45.3907C7.33821 44.7482 7.14928 48.0831 6.84289 49.4453C5.65821 52.5425 5.66332 54.2774 4.71353 56.3657C6.42417 57.5802 8.61481 56.9183 10.4123 54.1553C11.6837 51.7585 12.6693 51.585 13.2054 54.7015C16.6728 57.0336 20.4994 58.3964 24.4237 58.6969C28.348 58.9975 32.2776 58.2286 35.9442 56.4428C36.6233 53.3135 37.5527 54.8685 38.5944 54.3031C39.0386 55.8838 39.1867 55.826 39.2837 52.5617C39.1459 51.9192 39.1612 56.5906 39.8608 58.9874C40.2233 58.9874 39.5237 60.8508 39.7178 58.7304C38.5484 62.0267 37.1237 60.703 36.4088 61.0886C35.8982 61.9432 34.402 63.5303 33.4982 62.5343C25.9765 66.5182 18.8735 64.1536 12.0514 59.0581C11.9493 57.9207 10.9076 56.2565 10.4378 58.7689C7.96119 58.4091 5.03013 58.1263 2.95183 61.6669C1.05736 61.3777 0.91949 63.2926 0.000341295 60.536C-0.0405098 59.5593 0.27098 59.4436 0.000341295 59.2508C1.24119 53.3328 2.48715 49.9658 3.45736 48.1088C3.62077 46.8236 3.66162 49.6445 3.22758 46.875C-1.43455 32.6808 -1.19455 21.7508 5.47438 12.6071C11.025 3.11644 18.5671 0.391964 28.5961 0C38.094 3.66904 45.0795 8.42401 49.1493 20.1765C49.5374 22.6889 49.4761 23.0295 49.6957 22.0271C50.4565 21.5452 50.145 23.3893 50.385 25.1757Z"
            fill="#BD4545" />
    </g>
    <defs>
        <clipPath id="clip0_1_7069">
            <rect width="90" height="83" fill="white" />
        </clipPath>
    </defs>
</svg>
    