<svg width="42" height="53" viewBox="0 0 42 53" fill="none" xmlns="http://www.w3.org/2000/svg">
    <path
        d="M21 0C9.40669 0 0 7.56852 0 16.8945C0 31.9119 21 52.5608 21 52.5608C21 52.5608 42 31.9119 42 16.8945C42 7.56852 32.5933 0 21 0ZM21 26.2804C19.3386 26.2804 17.7146 25.84 16.3332 25.0149C14.9518 24.1899 13.8752 23.0172 13.2394 21.6452C12.6036 20.2731 12.4373 18.7634 12.7614 17.3068C13.0855 15.8503 13.8855 14.5124 15.0603 13.4623C16.2351 12.4122 17.7318 11.697 19.3612 11.4073C20.9907 11.1176 22.6796 11.2663 24.2145 11.8346C25.7494 12.4029 27.0613 13.3653 27.9843 14.6001C28.9073 15.8349 29.4 17.2866 29.4 18.7717C29.3976 20.7625 28.5118 22.6711 26.937 24.0787C25.3622 25.4864 23.2271 26.2782 21 26.2804Z"
        fill="#BD4545" />
</svg>
    