<svg width="16" height="16" viewBox="0 0 16 16" fill="none" xmlns="http://www.w3.org/2000/svg">
<path d="M8 0.666992C3.77467 0.666992 0 3.48433 0 7.33833C0 8.70499 0.492667 10.047 1.36467 11.0883C1.40133 12.3083 0.682667 14.059 0.036 15.3337C1.77067 15.0203 4.23667 14.3283 5.35467 13.643C11.512 15.141 16 11.373 16 7.33833C16 3.46366 12.1993 0.666992 8 0.666992ZM4.66667 8.33366C4.114 8.33366 3.66667 7.88632 3.66667 7.33366C3.66667 6.78099 4.114 6.33366 4.66667 6.33366C5.21933 6.33366 5.66667 6.78099 5.66667 7.33366C5.66667 7.88632 5.21933 8.33366 4.66667 8.33366ZM8 8.33366C7.44733 8.33366 7 7.88632 7 7.33366C7 6.78099 7.44733 6.33366 8 6.33366C8.55267 6.33366 9 6.78099 9 7.33366C9 7.88632 8.55267 8.33366 8 8.33366ZM11.3333 8.33366C10.7813 8.33366 10.3333 7.88632 10.3333 7.33366C10.3333 6.78099 10.7813 6.33366 11.3333 6.33366C11.886 6.33366 12.3333 6.78099 12.3333 7.33366C12.3333 7.88632 11.886 8.33366 11.3333 8.33366Z" fill="#F0D171"/>
</svg>
