<svg width="84" height="84" viewBox="0 0 84 84" fill="none" xmlns="http://www.w3.org/2000/svg">
<path d="M24.9367 42.0079C31.4615 42.0079 36.7509 36.7185 36.7509 30.1937C36.7509 23.6689 31.4615 18.3795 24.9367 18.3795C18.4119 18.3795 13.1226 23.6689 13.1226 30.1937C13.1226 36.7185 18.4119 42.0079 24.9367 42.0079Z" fill="#BD4545"/>
<path d="M38.3938 48.5703C33.7731 46.2238 28.6733 45.2885 24.9387 45.2885C17.6238 45.2885 2.62305 49.7747 2.62305 58.7436V65.6352H27.2359V62.9983C27.2359 59.8807 28.5486 56.7549 30.8458 54.1492C32.6787 52.0686 35.245 50.1373 38.3938 48.5703Z" fill="#BD4545"/>
<path d="M55.7817 47.2546C47.239 47.2546 30.188 52.5309 30.188 63.0046V70.8796H81.3755V63.0046C81.3755 52.5309 64.3245 47.2546 55.7817 47.2546Z" fill="#BD4545"/>
<path d="M55.7843 42.0063C63.759 42.0063 70.2238 35.5415 70.2238 27.5668C70.2238 19.592 63.759 13.1272 55.7843 13.1272C47.8095 13.1272 41.3447 19.592 41.3447 27.5668C41.3447 35.5415 47.8095 42.0063 55.7843 42.0063Z" fill="#BD4545"/>
</svg>
