<svg width="70" height="53" viewBox="0 0 70 53" fill="none" xmlns="http://www.w3.org/2000/svg">
    <path
        d="M64.1667 0H5.83333C2.65417 0.116802 0.116667 2.65724 0 5.84009V46.7207C0.116667 49.9035 2.65417 52.444 5.83333 52.5608H64.1667C67.3458 52.444 69.8833 49.9035 70 46.7207V5.84009C69.9463 4.30831 69.3145 2.85388 68.232 1.77009C67.1494 0.68629 65.6967 0.0537447 64.1667 0ZM64.1667 46.7207H5.83333V5.84009H64.1667V46.7207ZM40.8333 40.8806V37.2305C40.8333 32.3833 31.0917 29.9304 26.25 29.9304C21.4083 29.9304 11.6667 32.3833 11.6667 37.2305V40.8806H40.8333ZM26.25 11.6802C24.3161 11.6802 22.4615 12.4493 21.094 13.8183C19.7266 15.1874 18.9583 17.0442 18.9583 18.9803C18.9583 19.9389 19.1469 20.8882 19.5134 21.7739C19.8798 22.6596 20.4169 23.4644 21.094 24.1422C22.4615 25.5113 24.3161 26.2804 26.25 26.2804C27.2076 26.2804 28.1557 26.0916 29.0404 25.7247C29.9251 25.3578 30.7289 24.8201 31.406 24.1422C32.0831 23.4644 32.6202 22.6596 32.9866 21.7739C33.3531 20.8882 33.5417 19.9389 33.5417 18.9803C33.5417 18.0216 33.3531 17.0723 32.9866 16.1866C32.6202 15.301 32.0831 14.4962 31.406 13.8183C30.7289 13.1404 29.9251 12.6027 29.0404 12.2359C28.1557 11.869 27.2076 11.6802 26.25 11.6802ZM40.8333 11.6802V14.6002H58.3333V11.6802H40.8333ZM40.8333 17.5203V20.4403H58.3333V17.5203H40.8333ZM40.8333 23.3603V26.2804H52.5V23.3603H40.8333Z"
        fill="#BD4545" />
</svg>
    