<svg width="44" height="42" viewBox="0 0 44 42" fill="none" xmlns="http://www.w3.org/2000/svg">
<path fill-rule="evenodd" clip-rule="evenodd" d="M19.7499 1.975C19.9792 1.58158 20.3076 1.25515 20.7024 1.02828C21.0972 0.8014 21.5446 0.682007 21.9999 0.682007C22.4553 0.682007 22.9026 0.8014 23.2974 1.02828C23.6922 1.25515 24.0206 1.58158 24.2499 1.975L30.0728 11.9708L41.3812 14.4208C41.826 14.5175 42.2377 14.7291 42.5752 15.0344C42.9128 15.3398 43.1644 15.7284 43.305 16.1613C43.4456 16.5942 43.4703 17.0565 43.3765 17.5019C43.2828 17.9474 43.0739 18.3604 42.7707 18.7L35.0624 27.3271L36.2291 38.8375C36.2751 39.2907 36.2014 39.7481 36.0154 40.164C35.8294 40.5798 35.5375 40.9396 35.1689 41.2074C34.8004 41.4752 34.368 41.6416 33.915 41.69C33.462 41.7384 33.0042 41.6672 32.5874 41.4833L21.9999 36.8167L11.4124 41.4833C10.9956 41.6672 10.5378 41.7384 10.0848 41.69C9.63182 41.6416 9.19946 41.4752 8.83089 41.2074C8.46233 40.9396 8.17046 40.5798 7.98443 40.164C7.7984 39.7481 7.72472 39.2907 7.77074 38.8375L8.93741 27.3271L1.22907 18.7021C0.925382 18.3626 0.716065 17.9493 0.62202 17.5036C0.527975 17.0579 0.552492 16.5953 0.693124 16.162C0.833756 15.7287 1.08558 15.3399 1.42346 15.0344C1.76134 14.7288 2.17346 14.5173 2.61866 14.4208L13.927 11.9708L19.7499 1.975ZM21.9999 6.38958L17.1812 14.6646C16.999 14.9769 16.7537 15.2479 16.461 15.4602C16.1683 15.6726 15.8346 15.8216 15.4812 15.8979L6.12283 17.925L12.502 25.0646C12.9895 25.6104 13.2249 26.3354 13.152 27.0625L12.1874 36.5896L20.9499 32.7271C21.2808 32.5813 21.6384 32.506 21.9999 32.506C22.3615 32.506 22.719 32.5813 23.0499 32.7271L31.8124 36.5896L30.8478 27.0625C30.8112 26.7027 30.8499 26.3393 30.9614 25.9953C31.073 25.6513 31.2549 25.3344 31.4957 25.0646L37.877 17.925L28.5187 15.8979C28.1652 15.8216 27.8315 15.6726 27.5388 15.4602C27.2461 15.2479 27.0009 14.9769 26.8187 14.6646L21.9999 6.38958Z" fill="#BD4545"/>
</svg>
