<svg width="84" height="84" viewBox="0 0 84 84" fill="none" xmlns="http://www.w3.org/2000/svg">
<path fill-rule="evenodd" clip-rule="evenodd" d="M41.9998 9.22846C29.6719 9.22846 19.6782 19.2222 19.6782 31.5501C19.6782 38.6283 23.1969 47.1729 27.7152 55.1482C32.1937 63.0532 37.4789 70.1004 40.6678 74.1068C41.3725 74.9921 42.6368 74.9932 43.3429 74.1098C46.5336 70.1181 51.8158 63.099 56.2907 55.2047C60.8045 47.242 64.3215 38.6875 64.3215 31.5501C64.3215 19.2222 54.3277 9.22846 41.9998 9.22846ZM15.6997 31.5501C15.6997 17.025 27.4747 5.25 41.9998 5.25C56.525 5.25 68.2999 17.025 68.2999 31.5501C68.2999 39.7705 64.3333 49.0843 59.7518 57.1666C55.1314 65.3174 49.7067 72.5203 46.4506 76.5938C44.1494 79.4729 39.85 79.4677 37.555 76.5844C34.3019 72.4974 28.8759 65.2681 24.2537 57.1093C19.6713 49.0209 15.6997 39.7146 15.6997 31.5501Z" fill="#BD4545"/>
<path fill-rule="evenodd" clip-rule="evenodd" d="M42.0111 42.0961C47.6639 42.0961 52.2463 37.5136 52.2463 31.8608C52.2463 26.208 47.6639 21.6256 42.0111 21.6256C36.3583 21.6256 31.7758 26.208 31.7758 31.8608C31.7758 37.5136 36.3583 42.0961 42.0111 42.0961ZM42.0111 46.0745C49.8611 46.0745 56.2248 39.7108 56.2248 31.8608C56.2248 24.0108 49.8611 17.6471 42.0111 17.6471C34.1611 17.6471 27.7974 24.0108 27.7974 31.8608C27.7974 39.7108 34.1611 46.0745 42.0111 46.0745Z" fill="#BD4545"/>
<path d="M52.2463 31.8608C52.2463 37.5136 47.6639 42.0961 42.0111 42.0961C36.3583 42.0961 31.7758 37.5136 31.7758 31.8608C31.7758 26.208 36.3583 21.6256 42.0111 21.6256C47.6639 21.6256 52.2463 26.208 52.2463 31.8608Z" fill="#BD4545"/>
</svg>
