<svg width="84" height="84" viewBox="0 0 84 84" fill="none" xmlns="http://www.w3.org/2000/svg">
<path fill-rule="evenodd" clip-rule="evenodd" d="M24.255 44.9817C22.4992 43.7208 20.0282 44.3917 19.151 46.3674L12.6133 61.0925C11.9578 62.5688 12.4285 64.3026 13.7406 65.2448L24.1211 72.6987C24.7649 73.161 25.671 72.9151 25.9926 72.1906L34.3199 53.4347C34.5602 52.8934 34.3876 52.2577 33.9065 51.9122L24.255 44.9817ZM39.0802 53.2759C38.7327 53.3814 38.4482 53.6329 38.3009 53.9648L30.7415 70.991C30.3076 71.9683 31.2215 73.0039 32.2452 72.6949L43.7174 69.2324C44.0675 69.1267 44.3537 68.8732 44.5007 68.5384L51.9779 51.5163C52.4074 50.5385 51.4922 49.5073 50.4703 49.8175L39.0802 53.2759ZM58.6563 48.9285C58.0286 48.6704 57.3096 48.9605 57.0366 49.5819L48.7457 68.4565C48.4638 69.0983 48.7646 69.8464 49.4123 70.1143L60.3428 74.6358C62.0511 75.3425 64.0113 74.5587 64.7615 72.869L71.3854 57.9497C72.1645 56.195 71.3416 54.1434 69.5659 53.4134L58.6563 48.9285ZM45.9867 72.8676C45.7202 72.7574 45.4238 72.7427 45.1477 72.826L26.4065 78.4824C26.0346 78.5947 25.6317 78.5277 25.3162 78.3011L11.4929 68.3749C8.69758 66.3677 7.6948 62.6741 9.09127 59.5287L15.629 44.8036C17.4977 40.5945 22.762 39.1653 26.5028 41.8515L36.979 49.3742C37.2951 49.6012 37.6989 49.668 38.0712 49.555L56.191 44.0532C56.4668 43.9695 56.763 43.9836 57.0295 44.0932L71.0312 49.8493C74.814 51.4044 76.5672 55.7752 74.9075 59.5134L68.2835 74.4328C66.6853 78.0325 62.5092 79.7023 58.8697 78.1968L45.9867 72.8676Z" fill="#BD4545"/>
<path d="M19.151 46.3674C20.0282 44.3917 22.4992 43.7208 24.255 44.9817L33.9065 51.9122C34.3876 52.2577 34.5602 52.8934 34.3199 53.4347L25.9926 72.1906C25.671 72.9151 24.7649 73.161 24.1211 72.6987L13.7406 65.2448C12.4285 64.3026 11.9578 62.5688 12.6133 61.0925L19.151 46.3674Z" fill="#BD4545"/>
<path d="M49.4123 70.1143C48.7646 69.8464 48.4638 69.0983 48.7457 68.4565L57.0366 49.5819C57.3096 48.9605 58.0286 48.6704 58.6563 48.9285L69.5659 53.4134C71.3416 54.1434 72.1645 56.195 71.3854 57.9497L64.7615 72.869C64.0113 74.5587 62.0511 75.3425 60.3428 74.6358L49.4123 70.1143Z" fill="#BD4545"/>
<path fill-rule="evenodd" clip-rule="evenodd" d="M41.9791 9.10359C34.7577 9.10359 28.8868 14.9903 28.8868 22.2728C28.8868 26.0802 30.7743 30.2383 33.3693 34.0963C35.9338 37.909 39.0228 41.1859 41.0704 43.1831C41.5776 43.6779 42.3349 43.6754 42.8416 43.1692C44.8878 41.1249 47.9904 37.7725 50.5689 33.9316C53.1843 30.0357 55.0715 25.9123 55.0715 22.2728C55.0715 14.9903 49.2006 9.10359 41.9791 9.10359ZM25.0332 22.2728C25.0332 12.8806 32.6109 5.25 41.9791 5.25C51.3474 5.25 58.9251 12.8806 58.9251 22.2728C58.9251 27.0848 56.5053 32.0027 53.7684 36.0795C50.9946 40.2112 47.6998 43.7628 45.5651 45.8954C43.5719 47.8867 40.4019 47.9143 38.3796 45.9417C36.2352 43.85 32.9418 40.3653 30.1717 36.247C27.4322 32.1741 25.0332 27.2318 25.0332 22.2728Z" fill="#BD4545"/>
<path fill-rule="evenodd" clip-rule="evenodd" d="M42.0002 26.7011C44.5822 26.7011 46.7089 24.5919 46.7089 21.9486C46.7089 19.3054 44.5822 17.1962 42.0002 17.1962C39.4182 17.1962 37.2916 19.3054 37.2916 21.9486C37.2916 24.5919 39.4182 26.7011 42.0002 26.7011ZM42.0002 30.5547C46.729 30.5547 50.5625 26.7016 50.5625 21.9486C50.5625 17.1956 46.729 13.3426 42.0002 13.3426C37.2714 13.3426 33.438 17.1956 33.438 21.9486C33.438 26.7016 37.2714 30.5547 42.0002 30.5547Z" fill="#BD4545"/>
<path d="M46.7089 21.9486C46.7089 24.5919 44.5822 26.7011 42.0002 26.7011C39.4182 26.7011 37.2916 24.5919 37.2916 21.9486C37.2916 19.3054 39.4182 17.1962 42.0002 17.1962C44.5822 17.1962 46.7089 19.3054 46.7089 21.9486Z" fill="#BD4545"/>
</svg>
